<?xml version="1.0" encoding="utf-8"?>
<!-- Generator: Adobe Illustrator 27.0.1, SVG Export Plug-In . SVG Version: 6.00 Build 0)  -->
<svg version="1.1" id="レイヤー_1" xmlns="http://www.w3.org/2000/svg" xmlns:xlink="http://www.w3.org/1999/xlink" x="0px"
	 y="0px" viewBox="0 0 595.28 841.89" style="enable-background:new 0 0 595.28 841.89;" xml:space="preserve">
<style type="text/css">
	.st0{fill:#003E6A;}
</style>
<path class="st0" d="M303.3,204.39c-11.08,0-20.81,5.83-23.84,15.75c-1.22,3.78-1.66,6.77-1.66,26.77c0,0,0,0,0,0c0,0,0,0,0,0
	c0,0,0,0,0,0.01l-0.01-0.01v62.59c0,0.66,0.53,1.19,1.19,1.19h14.6c0.66,0,1.19-0.53,1.19-1.19v-24.57
	c3.71,4.13,9.64,5.69,17.3,3.39c7.18-2.15,12.89-7.48,15.07-14.64c1.22-3.78,1.67-6.77,1.67-26.77c0,0,0,0,0,0c0,0,0,0,0,0
	c0-20-0.45-22.99-1.67-26.77C324.1,210.22,314.38,204.39,303.3,204.39z M311.08,269.87c-1.15,4.19-4.03,5.96-7.78,5.96h0
	c-3.75,0-6.63-1.77-7.78-5.96c-0.58-2.09-0.72-4.43-0.72-22.96c0-18.52,0.14-20.86,0.72-22.96c1.15-4.19,4.03-5.96,7.78-5.96h0
	c3.75,0,6.63,1.77,7.78,5.96c0.58,2.09,0.72,4.43,0.72,22.96C311.8,265.43,311.66,267.78,311.08,269.87z"/>
<path class="st0" d="M227.35,218L227.35,218c3.75,0,6.63,1.77,7.78,5.96c0.41,1.5,0.6,3.12,0.68,10.72
	c0.01,0.65,0.54,1.18,1.19,1.18h14.58c0.67,0,1.2-0.55,1.19-1.22c-0.19-9.3-0.67-11.68-1.58-14.5
	c-3.03-9.92-12.76-15.75-23.84-15.75c-11.08,0-20.81,5.83-23.84,15.75c-1.22,3.78-1.67,6.77-1.67,26.77c0,0,0,0,0,0c0,0,0,0,0,0
	c0,20,0.45,22.99,1.67,26.77c3.03,9.92,12.76,15.75,23.84,15.75c11.08,0,20.81-5.83,23.84-15.75c0.78-2.43,1.25-4.54,1.48-11.07
	c0.02-0.67-0.51-1.24-1.19-1.24h-14.56c-0.63,0-1.15,0.51-1.16,1.14c-0.1,4.77-0.29,6.11-0.63,7.35c-1.15,4.19-4.03,5.96-7.78,5.96
	h0c-3.75,0-6.63-1.77-7.78-5.96c-0.58-2.09-0.72-4.43-0.72-22.96c0-18.52,0.14-20.86,0.72-22.96
	C220.72,219.77,223.61,218,227.35,218z"/>
<path class="st0" d="M155.06,204.39h-0.04c-11.08,0-20.81,5.83-23.84,15.75c-1.22,3.78-4.31,16.34,10.48,27.93
	c5.55,4.42,9.22,6.79,14.63,10.46c7.54,5.1,8.12,8.82,6.57,12.51c-1.46,3.1-4.21,4.78-7.84,4.78h0c-3.78,0-6.53-1.83-7.75-5.96
	c-0.34-1.24-0.53-2.58-0.63-7.35c-0.01-0.63-0.53-1.14-1.16-1.14h-14.56c-0.68,0-1.21,0.57-1.19,1.24c0.23,6.53,0.7,8.64,1.48,11.07
	c3.03,9.92,12.74,15.75,23.82,15.75c11.08,0,20.85-5.81,23.84-15.75c1.28-4.25,3.18-15.09-7.3-23.75c-4.42-3.65-9.44-6.9-14.22-9.9
	c-9.15-5.73-11.69-10.58-10.53-15.54c0.98-4.2,4.23-6.5,8.21-6.5h0c3.98,0,6.6,1.83,7.82,5.96c0.41,1.5,0.6,3.12,0.68,10.72
	c0.01,0.65,0.54,1.18,1.19,1.18h14.58c0.67,0,1.2-0.55,1.19-1.22c-0.19-9.3-0.67-11.68-1.58-14.5
	C175.87,210.22,166.14,204.39,155.06,204.39z"/>
</svg>
