<svg xmlns="http://www.w3.org/2000/svg" width="25" height="25" viewBox="0 0 16 16">
  <g id="グループ_1500" data-name="グループ 1500" transform="translate(117.715 -183.825)">
    <path id="パス_784" data-name="パス 784" d="M-106.481,185.755a2.839,2.839,0,0,1,2.836,2.836v6.468a2.839,2.839,0,0,1-2.836,2.836h-6.468a2.839,2.839,0,0,1-2.836-2.836v-6.468a2.839,2.839,0,0,1,2.836-2.836h6.468m0-1.93h-6.468a4.78,4.78,0,0,0-4.766,4.766v6.468a4.78,4.78,0,0,0,4.766,4.766h6.468a4.78,4.78,0,0,0,4.766-4.766v-6.468a4.78,4.78,0,0,0-4.766-4.766Z" transform="translate(0 0)" fill="#d8d8d8"/>
    <path id="パス_785" data-name="パス 785" d="M-83.694,191.825a1.021,1.021,0,0,0-1.021,1.021,1.021,1.021,0,0,0,1.021,1.021,1.021,1.021,0,0,0,1.021-1.021,1.021,1.021,0,0,0-1.021-1.021Z" transform="translate(-21.766 -5.277)" fill="#d8d8d8"/>
    <g id="グループ_1485" data-name="グループ 1485" transform="translate(-113.971 187.569)">
      <path id="パス_786" data-name="パス 786" d="M-102.46,196.755a2.328,2.328,0,0,1,2.325,2.325,2.328,2.328,0,0,1-2.325,2.325,2.328,2.328,0,0,1-2.325-2.325,2.328,2.328,0,0,1,2.325-2.325m0-1.93a4.255,4.255,0,0,0-4.255,4.255,4.255,4.255,0,0,0,4.255,4.255A4.256,4.256,0,0,0-98.2,199.08a4.255,4.255,0,0,0-4.255-4.255Z" transform="translate(106.715 -194.825)" fill="#d8d8d8"/>
    </g>
  </g>
</svg>
